<svg id="Capa_1" data-name="Capa 1" xmlns="http://www.w3.org/2000/svg" viewBox="0 0 73.31 28.91">
  <defs>
    <style>
      .cls-1 {
        fill: #0062ff;
      }
    </style>
  </defs>
  <path d="M54.86,64A11.43,11.43,0,0,1,50,63.07a10,10,0,0,1-3.4-2.54,10.62,10.62,0,0,1-2-3.56,12.39,12.39,0,0,1-.67-4v-.76A12.67,12.67,0,0,1,44.59,48a10.37,10.37,0,0,1,2.08-3.56A10.23,10.23,0,0,1,50.09,42,11.44,11.44,0,0,1,54.82,41a11.32,11.32,0,0,1,5,1.08,9,9,0,0,1,3.54,3,8.78,8.78,0,0,1,1.49,4.51H59.53a4.4,4.4,0,0,0-1.41-2.77,4.69,4.69,0,0,0-3.3-1.11,5,5,0,0,0-3,.87A5.18,5.18,0,0,0,50,49a9.48,9.48,0,0,0-.59,3.5A9.85,9.85,0,0,0,50,56a5,5,0,0,0,1.78,2.42,5.18,5.18,0,0,0,3.11.87,5.33,5.33,0,0,0,2.45-.52A4.12,4.12,0,0,0,59,57.33a4.72,4.72,0,0,0,.77-2.06h5.35a8.78,8.78,0,0,1-1.53,4.57,9.36,9.36,0,0,1-3.6,3.07A11.26,11.26,0,0,1,54.86,64Z" transform="translate(-14.46 -36.81)"/>
  <path d="M78.39,63.92A11.37,11.37,0,0,1,71.45,62a6.43,6.43,0,0,1-2.63-5.21h4.94a3,3,0,0,0,1.23,2,5.43,5.43,0,0,0,3.48.91,6.07,6.07,0,0,0,3.15-.71,2.16,2.16,0,0,0,1.16-1.94,2,2,0,0,0-.89-1.7,6.45,6.45,0,0,0-3-.83l-1.9-.2a10,10,0,0,1-5.54-2.06,5.53,5.53,0,0,1-1.94-4.43,6.08,6.08,0,0,1,1.11-3.72,6.78,6.78,0,0,1,3.06-2.27,12.13,12.13,0,0,1,4.5-.77,10.8,10.8,0,0,1,6.41,1.74A6.16,6.16,0,0,1,87.14,48h-5a2.57,2.57,0,0,0-1.11-1.9,4.75,4.75,0,0,0-3-.79,4.59,4.59,0,0,0-2.69.67,2,2,0,0,0-1,1.74,1.83,1.83,0,0,0,.77,1.59,5.44,5.44,0,0,0,2.51.75l1.9.2a11.32,11.32,0,0,1,6,2.09,5.55,5.55,0,0,1,2.16,4.59,6,6,0,0,1-1.17,3.7,7.46,7.46,0,0,1-3.26,2.44A12.88,12.88,0,0,1,78.39,63.92Z" transform="translate(-14.46 -36.81)"/>
  <rect class="cls-1" x="23.91" y="36.81" width="5.28" height="28.91" transform="translate(67.11 31.93) rotate(135)"/>
  <rect class="cls-1" x="23.91" y="36.81" width="5.28" height="28.91" transform="translate(29.56 -40.57) rotate(45)"/>
  <rect class="cls-1" x="9.45" width="5.28" height="28.91"/>
</svg>
