<svg id="Capa_1" data-name="Capa 1" xmlns="http://www.w3.org/2000/svg" viewBox="0 0 87.6 83.69">
  <path d="M53.49,11.17,64,32.48a3.88,3.88,0,0,0,2.93,2.13L90.46,38a3.89,3.89,0,0,1,2.16,6.64l-17,16.59a3.9,3.9,0,0,0-1.12,3.45l4,23.42a3.9,3.9,0,0,1-5.65,4.11l-21-11.06a3.87,3.87,0,0,0-3.62,0l-21,11.06a3.9,3.9,0,0,1-5.65-4.11l4-23.42a3.9,3.9,0,0,0-1.12-3.45l-17-16.59A3.89,3.89,0,0,1,9.54,38l23.52-3.42A3.88,3.88,0,0,0,36,32.48L46.51,11.17A3.89,3.89,0,0,1,53.49,11.17Z" transform="translate(-6.2 -9)"/>
</svg>
