<svg id="Capa_1" data-name="Capa 1" xmlns="http://www.w3.org/2000/svg" viewBox="0 0 387.18 78.93">
  <defs>
    <style>
      .cls-1 {
        fill: #fff;
      }

      .cls-2 {
        fill: #044aff;
      }
    </style>
  </defs>
  <g>
    <g>
      <path class="cls-1" d="M106.1,185.12a19.52,19.52,0,0,1,9.9-2.49v14.63h-3.68q-6.57,0-9.9,3.09T99.08,211.1v27.47H85.15V183.43H99.08V192A19.65,19.65,0,0,1,106.1,185.12Z" transform="translate(-6.41 -160.54)"/>
      <path class="cls-1" d="M134.32,237a21.51,21.51,0,0,1-8.51-6.62,16.82,16.82,0,0,1-3.44-9.26h14a7.64,7.64,0,0,0,3.13,5.28,10.94,10.94,0,0,0,6.82,2.08,10.53,10.53,0,0,0,6.22-1.59,4.82,4.82,0,0,0,2.24-4.08,4.3,4.3,0,0,0-2.74-4,51.57,51.57,0,0,0-8.71-2.93,74.73,74.73,0,0,1-10.1-3.09,17.61,17.61,0,0,1-6.77-4.88q-2.84-3.28-2.83-8.86a14.3,14.3,0,0,1,2.63-8.36,17.71,17.71,0,0,1,7.57-6,28.33,28.33,0,0,1,11.59-2.19q9.85,0,15.73,4.93a18.26,18.26,0,0,1,6.47,13.29H154.32a7.26,7.26,0,0,0-2.73-5.23,10.21,10.21,0,0,0-6.52-1.94,10.35,10.35,0,0,0-5.83,1.39,4.46,4.46,0,0,0-2,3.89,4.58,4.58,0,0,0,2.79,4.23,43.08,43.08,0,0,0,8.66,2.93,74,74,0,0,1,9.85,3.09,17.38,17.38,0,0,1,6.72,4.92,13.57,13.57,0,0,1,2.94,8.81,14.58,14.58,0,0,1-2.64,8.56,17.33,17.33,0,0,1-7.57,5.92,28.55,28.55,0,0,1-11.49,2.14A29.15,29.15,0,0,1,134.32,237Z" transform="translate(-6.41 -160.54)"/>
      <path class="cls-1" d="M180.55,174.52a8.16,8.16,0,0,1,0-11.64,9.17,9.17,0,0,1,12.24,0,8.16,8.16,0,0,1,0,11.64,9.17,9.17,0,0,1-12.24,0Zm13,8.91v55.14H179.6V183.43Z" transform="translate(-6.41 -160.54)"/>
      <path class="cls-1" d="M223.5,194.88v26.67a5.25,5.25,0,0,0,1.34,4c.9.83,2.4,1.24,4.53,1.24h6.47v11.75h-8.76q-17.62,0-17.62-17.12V194.88h-6.57V183.43h6.57V169.79h14v13.64h12.34v11.45Z" transform="translate(-6.41 -160.54)"/>
      <path class="cls-1" d="M246.83,174.52a8.18,8.18,0,0,1,0-11.64,9.19,9.19,0,0,1,12.25,0,8.16,8.16,0,0,1,0,11.64,9.19,9.19,0,0,1-12.25,0Zm13,8.91v55.14H245.89V183.43Z" transform="translate(-6.41 -160.54)"/>
      <path class="cls-1" d="M273.31,196a24.39,24.39,0,0,1,9.06-9.95,24,24,0,0,1,12.79-3.49A22.48,22.48,0,0,1,306,185a22,22,0,0,1,7.41,6.27v-7.86h14v55.14h-14v-8.06a20.86,20.86,0,0,1-7.41,6.42,22.75,22.75,0,0,1-10.9,2.53,23.39,23.39,0,0,1-12.69-3.58,25,25,0,0,1-9.06-10.1,32.49,32.49,0,0,1-3.33-15A32,32,0,0,1,273.31,196Zm38.07,6.32a14,14,0,0,0-5.38-5.57,14.18,14.18,0,0,0-19.75,5.47,17.3,17.3,0,0,0-2,8.61,17.88,17.88,0,0,0,2,8.71,14.63,14.63,0,0,0,5.37,5.72,13.63,13.63,0,0,0,7.12,2,14.26,14.26,0,0,0,7.26-1.94,14,14,0,0,0,5.38-5.57,20.06,20.06,0,0,0,0-17.42Z" transform="translate(-6.41 -160.54)"/>
      <path class="cls-1" d="M387.52,188.85q6.06,6.22,6.07,17.37v32.35H379.66V208.11q0-6.57-3.29-10.1a11.64,11.64,0,0,0-9-3.53q-5.78,0-9.1,3.53T355,208.11v30.46H341V183.43H355v6.87a19.25,19.25,0,0,1,7.12-5.63,22,22,0,0,1,9.5-2Q381.45,182.63,387.52,188.85Z" transform="translate(-6.41 -160.54)"/>
    </g>
    <path class="cls-2" d="M73.16,206.29a32.92,32.92,0,0,1-3,13.85l-2.71-1.56-11.19-6.46a17.33,17.33,0,0,0,0-11.66L67.42,194l2.71-1.56A32.92,32.92,0,0,1,73.16,206.29Z" transform="translate(-6.41 -160.54)"/>
    <path class="cls-1" d="M55.44,221.92l-4.53-2.62a17.25,17.25,0,1,1,0-26l4.53-2.62,9.65-5.57a33.17,33.17,0,1,0,0,42.4Z" transform="translate(-6.41 -160.54)"/>
  </g>
</svg>
