<svg id="Capa_1" data-name="Capa 1" xmlns="http://www.w3.org/2000/svg" viewBox="0 0 378.81 79.3">
  <defs>
    <style>
      .cls-1 {
        fill: #044aff;
      }

      .cls-2 {
        fill: #fff;
      }
    </style>
  </defs>
  <g>
    <path class="cls-1" d="M73.16,204.65a28.26,28.26,0,0,1-2.61,11.91l-2.32-1.34-9.63-5.56a14.86,14.86,0,0,0,0-10l9.63-5.56,2.32-1.34A28.26,28.26,0,0,1,73.16,204.65Z" transform="translate(-15.77 -154.77)"/>
    <path class="cls-2" d="M57.92,218.09,54,215.84a14.83,14.83,0,1,1,0-22.38l3.89-2.25,8.3-4.79a28.52,28.52,0,1,0,0,36.46Z" transform="translate(-15.77 -154.77)"/>
  </g>
  <g>
    <path class="cls-2" d="M105.74,179.47a19.66,19.66,0,0,1,10-2.5v14.7H112q-6.6,0-9.95,3.1t-3.35,10.8v27.6h-14v-55.4h14v8.6A19.74,19.74,0,0,1,105.74,179.47Z" transform="translate(-15.77 -154.77)"/>
    <path class="cls-2" d="M126,168.82a8.21,8.21,0,0,1,0-11.7,9.22,9.22,0,0,1,12.3,0,8.21,8.21,0,0,1,0,11.7,9.22,9.22,0,0,1-12.3,0Zm13.05,9v55.4h-14v-55.4Z" transform="translate(-15.77 -154.77)"/>
    <path class="cls-2" d="M161.88,231.62a21.53,21.53,0,0,1-8.55-6.65,16.85,16.85,0,0,1-3.45-9.3H164a7.69,7.69,0,0,0,3.15,5.3,11,11,0,0,0,6.85,2.1,10.6,10.6,0,0,0,6.25-1.6,4.83,4.83,0,0,0,2.25-4.1,4.31,4.31,0,0,0-2.75-4.05,51.94,51.94,0,0,0-8.75-2.95,74.12,74.12,0,0,1-10.15-3.1,17.58,17.58,0,0,1-6.8-4.9c-1.9-2.2-2.85-5.16-2.85-8.9a14.44,14.44,0,0,1,2.65-8.4,17.86,17.86,0,0,1,7.6-6,28.62,28.62,0,0,1,11.65-2.2q9.9,0,15.8,4.95a18.32,18.32,0,0,1,6.5,13.35H182a7.23,7.23,0,0,0-2.75-5.25,10.2,10.2,0,0,0-6.55-1.95,10.36,10.36,0,0,0-5.85,1.4,4.49,4.49,0,0,0-2.05,3.9,4.58,4.58,0,0,0,2.8,4.25,43.42,43.42,0,0,0,8.7,2.95,74.83,74.83,0,0,1,9.9,3.1,17.56,17.56,0,0,1,6.75,5,13.58,13.58,0,0,1,2.95,8.85,14.64,14.64,0,0,1-2.65,8.6,17.35,17.35,0,0,1-7.6,5.95,28.68,28.68,0,0,1-11.55,2.15A29.12,29.12,0,0,1,161.88,231.62Z" transform="translate(-15.77 -154.77)"/>
    <path class="cls-2" d="M223.68,189.27v26.8a5.29,5.29,0,0,0,1.35,4.05c.9.84,2.42,1.25,4.55,1.25h6.5v11.8h-8.8q-17.7,0-17.7-17.2v-26.7H203v-11.5h6.6v-13.7h14.1v13.7h12.4v11.5Z" transform="translate(-15.77 -154.77)"/>
    <path class="cls-2" d="M247.13,168.82a8.21,8.21,0,0,1,0-11.7,9.22,9.22,0,0,1,12.3,0,8.21,8.21,0,0,1,0,11.7,9.22,9.22,0,0,1-12.3,0Zm13.05,9v55.4h-14v-55.4Z" transform="translate(-15.77 -154.77)"/>
    <path class="cls-2" d="M273.73,190.37a24.69,24.69,0,0,1,9.1-10,24.28,24.28,0,0,1,12.85-3.5,22.63,22.63,0,0,1,10.85,2.5,22,22,0,0,1,7.45,6.3v-7.9h14.1v55.4H314v-8.1a20.8,20.8,0,0,1-7.45,6.45,22.76,22.76,0,0,1-10.95,2.55,23.58,23.58,0,0,1-12.75-3.6,25.24,25.24,0,0,1-9.1-10.15,32.61,32.61,0,0,1-3.35-15A32.12,32.12,0,0,1,273.73,190.37ZM312,196.72a14.08,14.08,0,0,0-5.4-5.6,14.41,14.41,0,0,0-7.3-2,14.06,14.06,0,0,0-12.55,7.45,17.48,17.48,0,0,0-2.05,8.65,18,18,0,0,0,2.05,8.75,14.78,14.78,0,0,0,5.4,5.75,13.68,13.68,0,0,0,7.15,2,14.41,14.41,0,0,0,7.3-2,14,14,0,0,0,5.4-5.6,20.14,20.14,0,0,0,0-17.5Z" transform="translate(-15.77 -154.77)"/>
    <path class="cls-2" d="M388.48,183.22q6.11,6.25,6.1,17.45v32.5h-14v-30.6q0-6.6-3.3-10.15a11.71,11.71,0,0,0-9-3.55,12,12,0,0,0-9.15,3.55q-3.35,3.56-3.35,10.15v30.6h-14v-55.4h14v6.9a19.4,19.4,0,0,1,7.15-5.65,22.24,22.24,0,0,1,9.55-2.05Q382.38,177,388.48,183.22Z" transform="translate(-15.77 -154.77)"/>
  </g>
</svg>
